<svg  viewBox="0 0 210 356" fill="none" xmlns="http://www.w3.org/2000/svg">
<path d="M183.456 283.288V214.402C183.456 207.118 180.562 200.132 175.411 194.981C170.26 189.83 163.274 186.937 155.99 186.937H53.8986C46.6142 186.937 39.6283 189.83 34.4775 194.981C29.3267 200.132 26.433 207.118 26.433 214.402V283.288H183.456Z" fill="#E67557"/>
<path d="M120.948 203.509C120.948 212.353 104.937 231.971 104.937 231.971C104.937 231.971 88.9244 212.353 88.9244 203.509V145.143C88.9242 143.04 89.3382 140.958 90.1428 139.015C90.9474 137.072 92.1269 135.307 93.6138 133.82C95.1008 132.333 96.8661 131.154 98.8089 130.349C100.752 129.544 102.834 129.13 104.937 129.131C107.04 129.13 109.122 129.544 111.065 130.349C113.008 131.154 114.773 132.333 116.259 133.82C117.746 135.307 118.926 137.072 119.73 139.015C120.534 140.958 120.948 143.04 120.948 145.143V203.509Z" fill="#F8D4C1"/>
<path d="M49.4773 88.0319H159.393C169.159 76.8805 179.183 1.73261 168.655 0.563784C124.805 -4.30978 48.8185 23.9817 48.8185 23.9817C48.8185 23.9817 38.1421 55.856 38.1421 55.8767C38.1421 66.0327 41.3016 82.6813 49.4773 88.0319Z" fill="#363032"/>
<path d="M69.5538 106.636C69.5547 110.059 68.5405 113.405 66.6395 116.251C64.7386 119.098 62.0363 121.316 58.8743 122.627C55.7124 123.937 52.2328 124.281 48.8757 123.614C45.5186 122.947 42.4347 121.299 40.014 118.879C37.5933 116.459 35.9446 113.376 35.2763 110.019C34.608 106.662 34.9502 103.182 36.2595 100.02C37.5689 96.8576 39.7866 94.1545 42.6323 92.2525C45.4779 90.3505 48.8237 89.3351 52.2465 89.3347C54.5189 89.3342 56.7693 89.7813 58.8689 90.6505C60.9686 91.5197 62.8765 92.794 64.4837 94.4006C66.0908 96.0072 67.3658 97.9146 68.2357 100.014C69.1057 102.113 69.5536 104.364 69.5538 106.636Z" fill="#F8D4C1"/>
<path d="M174.927 106.636C174.927 110.058 173.913 113.404 172.012 116.25C170.111 119.096 167.408 121.314 164.247 122.624C161.085 123.934 157.606 124.277 154.249 123.609C150.892 122.942 147.809 121.294 145.389 118.874C142.969 116.454 141.32 113.371 140.653 110.015C139.985 106.658 140.327 103.179 141.637 100.017C142.946 96.8549 145.164 94.1524 148.01 92.251C150.855 90.3496 154.201 89.3347 157.623 89.3347C162.212 89.3347 166.613 91.1575 169.858 94.402C173.103 97.6466 174.926 102.047 174.927 106.636Z" fill="#F8D4C1"/>
<path d="M138.773 67.2758C134.765 67.2763 130.828 66.2235 127.355 64.2229C123.882 62.2222 120.996 59.344 118.986 55.8766C114.806 58.5932 109.928 60.0391 104.943 60.0391C99.9583 60.0391 95.0804 58.5932 90.9007 55.8766C89.1533 58.8919 86.7398 61.4678 83.8444 63.4075C80.9491 65.3472 77.6487 66.5993 74.1953 67.0682C70.742 67.537 67.2272 67.2102 63.9195 66.1127C60.6118 65.0151 57.5988 63.176 55.1108 60.7357C53.2181 66.233 52.2502 72.006 52.2465 77.82V126.029C52.2465 155.128 75.8359 178.713 104.935 178.713C134.034 178.713 157.623 155.128 157.623 126.029V77.82C157.624 72.0071 156.662 66.2341 154.776 60.7357C150.506 64.9312 144.759 67.2801 138.773 67.2758Z" fill="#F8D4C1"/>
<path d="M154.776 60.7355C154.538 60.9688 154.274 61.1815 154.026 61.4066V84.965C154.026 112.073 132.047 134.054 104.937 134.054C77.8266 134.054 55.8459 112.073 55.8459 84.965V61.4066C55.5961 61.1815 55.3379 60.9688 55.0984 60.7355C53.2099 66.2335 52.2462 72.0065 52.2465 77.8198V126.029C52.2465 155.128 75.8359 178.713 104.935 178.713C134.034 178.713 157.623 155.128 157.623 126.029V77.8198C157.624 72.0069 156.662 66.2339 154.776 60.7355Z" fill="#443D40"/>
<path d="M58.8548 281.145V226.198C58.8654 225.796 58.7953 225.396 58.6488 225.021C58.5022 224.647 58.2822 224.306 58.0017 224.018C57.7211 223.73 57.3858 223.501 57.0154 223.345C56.6449 223.188 56.247 223.108 55.8449 223.108C55.4429 223.108 55.0449 223.188 54.6745 223.345C54.3041 223.501 53.9687 223.73 53.6882 224.018C53.4076 224.306 53.1876 224.647 53.0411 225.021C52.8946 225.396 52.8245 225.796 52.835 226.198V281.145H58.8548Z" fill="#AE5B42"/>
<path d="M157.037 281.145V226.198C157.047 225.796 156.977 225.396 156.831 225.021C156.684 224.647 156.464 224.306 156.184 224.018C155.903 223.73 155.568 223.501 155.197 223.345C154.827 223.188 154.429 223.108 154.027 223.108C153.625 223.108 153.227 223.188 152.857 223.345C152.486 223.501 152.151 223.73 151.871 224.018C151.59 224.306 151.37 224.647 151.224 225.021C151.077 225.396 151.007 225.796 151.017 226.198V281.145H157.037Z" fill="#AE5B42"/>
<path d="M94.3864 139.185V141.833C94.4252 144.606 95.554 147.252 97.5285 149.199C99.5031 151.146 102.165 152.238 104.938 152.238C107.711 152.238 110.373 151.146 112.347 149.199C114.322 147.252 115.451 144.606 115.49 141.833V139.185H94.3864Z" fill="white"/>
<path d="M104.937 106.636V115.609L98.2235 122.651L104.937 126.265" fill="#F8D4C1"/>
<g style="mix-blend-mode:multiply">
<path d="M104.937 127.77C104.688 127.771 104.443 127.709 104.225 127.59L97.5091 123.974C97.3047 123.865 97.1285 123.71 96.9942 123.521C96.8598 123.332 96.771 123.114 96.7346 122.885C96.6982 122.656 96.7152 122.422 96.7844 122.201C96.8535 121.98 96.9729 121.777 97.1332 121.61L103.432 115.001V106.636C103.432 106.236 103.59 105.854 103.873 105.571C104.155 105.289 104.538 105.13 104.937 105.13C105.336 105.13 105.719 105.289 106.002 105.571C106.284 105.854 106.442 106.236 106.442 106.636V115.609C106.442 115.993 106.294 116.363 106.029 116.641L100.675 122.252L105.652 124.937C105.946 125.096 106.179 125.349 106.313 125.656C106.448 125.962 106.476 126.305 106.394 126.629C106.312 126.954 106.124 127.241 105.861 127.447C105.597 127.653 105.272 127.765 104.937 127.766V127.77Z" fill="#D4D4D4"/>
</g>
<path d="M130.645 93.4299C130.646 94.394 130.36 95.3366 129.825 96.1385C129.29 96.9405 128.529 97.5657 127.638 97.9352C126.748 98.3048 125.768 98.402 124.822 98.2146C123.876 98.0272 123.007 97.5636 122.325 96.8824C121.643 96.2013 121.178 95.3331 120.989 94.3877C120.8 93.4422 120.895 92.462 121.263 91.5709C121.631 90.6797 122.255 89.9177 123.056 89.3811C123.857 88.8445 124.799 88.5575 125.763 88.5563C126.404 88.5557 127.038 88.6814 127.63 88.926C128.222 89.1706 128.76 89.5294 129.214 89.982C129.667 90.4346 130.027 90.972 130.272 91.5636C130.518 92.1551 130.645 92.7893 130.645 93.4299Z" fill="#292425"/>
<path d="M88.9781 93.4298C88.9785 94.3943 88.6928 95.3373 88.1572 96.1394C87.6216 96.9415 86.8602 97.5667 85.9692 97.936C85.0782 98.3053 84.0977 98.402 83.1517 98.214C82.2057 98.0259 81.3368 97.5615 80.6548 96.8795C79.9728 96.1975 79.5084 95.3286 79.3203 94.3826C79.1322 93.4366 79.229 92.4561 79.5983 91.5651C79.9675 90.6741 80.5928 89.9127 81.3949 89.3771C82.197 88.8415 83.14 88.5559 84.1045 88.5563C85.3967 88.5574 86.6357 89.0712 87.5494 89.9849C88.4632 90.8987 88.977 92.1376 88.9781 93.4298Z" fill="#292425"/>
<path d="M91.3117 81.0974H74.7559C74.3665 81.083 73.9979 80.9181 73.7276 80.6376C73.4572 80.357 73.3062 79.9825 73.3062 79.5929C73.3062 79.2033 73.4572 78.8288 73.7276 78.5483C73.9979 78.2677 74.3665 78.1029 74.7559 78.0884H91.3158C91.518 78.0809 91.7197 78.1143 91.9088 78.1865C92.0978 78.2588 92.2704 78.3684 92.4162 78.5088C92.5619 78.6493 92.6778 78.8177 92.757 79.0039C92.8362 79.1902 92.877 79.3905 92.877 79.5929C92.877 79.7953 92.8362 79.9956 92.757 80.1819C92.6778 80.3682 92.5619 80.5366 92.4162 80.677C92.2704 80.8174 92.0978 80.9271 91.9088 80.9993C91.7197 81.0715 91.518 81.1049 91.3158 81.0974H91.3117Z" fill="#292425"/>
<path d="M135.12 81.0974H118.558C118.356 81.1049 118.154 81.0715 117.965 80.9993C117.776 80.9271 117.604 80.8174 117.458 80.677C117.312 80.5366 117.196 80.3682 117.117 80.1819C117.038 79.9956 116.997 79.7953 116.997 79.5929C116.997 79.3905 117.038 79.1902 117.117 79.0039C117.196 78.8177 117.312 78.6493 117.458 78.5088C117.604 78.3684 117.776 78.2588 117.965 78.1865C118.154 78.1143 118.356 78.0809 118.558 78.0884H135.12C135.51 78.1029 135.878 78.2677 136.149 78.5483C136.419 78.8288 136.57 79.2033 136.57 79.5929C136.57 79.9825 136.419 80.357 136.149 80.6376C135.878 80.9181 135.51 81.083 135.12 81.0974Z" fill="#292425"/>
<path d="M0 344.887C0.363423 347.949 1.83715 350.771 4.14203 352.82C6.4469 354.868 9.42284 355.999 12.5061 356H197.368C200.45 355.998 203.425 354.866 205.729 352.818C208.033 350.77 209.507 347.948 209.87 344.887H0Z" fill="#777776"/>
<path d="M196.885 227.813H12.9894V345.404H196.885V227.813Z" fill="#BBBABA"/>
</svg>
