<svg width="24" height="18" viewBox="0 0 24 18" fill="none" xmlns="http://www.w3.org/2000/svg">
<path d="M8 10.2857H16H8ZM12 6.42857V14.1429V6.42857ZM0 15.4286V2.57143C0 1.88944 0.280951 1.23539 0.781048 0.753154C1.28115 0.270917 1.95942 0 2.66667 0H10.6667L13.3333 2.57143H21.3333C22.0406 2.57143 22.7189 2.84235 23.219 3.32458C23.719 3.80682 24 4.46087 24 5.14286V15.4286C24 16.1106 23.719 16.7646 23.219 17.2468C22.7189 17.7291 22.0406 18 21.3333 18H2.66667C1.95942 18 1.28115 17.7291 0.781048 17.2468C0.280951 16.7646 0 16.1106 0 15.4286Z"/>
<line x1="12" y1="6" x2="12" y2="14" stroke="white" stroke-width="2" stroke-linecap="round" stroke-linejoin="round"/>
<line x1="8" y1="10" x2="16" y2="10" stroke="white" stroke-width="2" stroke-linecap="round" stroke-linejoin="round"/>
</svg>
