<svg viewBox="0 0 103 43" fill="none" xmlns="http://www.w3.org/2000/svg">
<path d="M39.0527 13.7618C40.6566 13.577 41.9527 14.5857 41.9527 16.0102L41.9154 31.8418C41.9154 33.2741 40.6099 34.5831 39.006 34.7679L2.90004 38.9645C1.29616 39.1493 0 38.1406 0 36.716L0.037299 20.8844C0.037299 19.4522 1.34278 18.1432 2.94667 17.9584L39.0527 13.7618ZM39.2578 32.2268L39.2671 29.8629C39.2671 29.5318 38.9687 29.3085 38.6051 29.347L2.91869 33.4897C2.55502 33.5359 2.25662 33.8285 2.25662 34.1596L2.2473 36.5235C2.2473 36.8469 2.5457 37.078 2.90937 37.0395L38.5957 32.8968C38.9594 32.8505 39.2578 32.5579 39.2578 32.2268ZM2.25662 29.5703L2.2473 31.7879C2.2473 32.1575 2.58299 32.4116 2.99329 32.3654L30.8841 29.1314C31.2944 29.0852 31.6301 28.7463 31.6301 28.3767L31.6394 26.1591C31.6394 25.7895 31.3037 25.5354 30.8934 25.5816L3.00262 28.8156C2.59232 28.8695 2.25662 29.2007 2.25662 29.5703ZM2.26595 24.7653L2.25662 27.2833C2.25662 27.5682 2.51772 27.7684 2.83477 27.7376L20.1791 25.7279C20.4961 25.6894 20.7572 25.4276 20.7572 25.1427L20.7665 22.6247C20.7665 22.3398 20.5054 22.1396 20.1884 22.1781L2.84409 24.1878C2.52705 24.2109 2.26595 24.4727 2.26595 24.7653ZM2.27527 20.253L2.26595 22.4707C2.26595 22.8403 2.60165 23.0944 3.01194 23.0482L11.6468 22.0472C12.0571 22.001 12.3928 21.6622 12.3928 21.2926L12.4021 19.0749C12.4021 18.7053 12.0664 18.4512 11.6561 18.4974L3.02127 19.4984C2.6203 19.5446 2.2846 19.8834 2.27527 20.253Z" fill="#DB9A33"/>
<path d="M38.6055 29.3472C38.9692 29.301 39.2676 29.532 39.2676 29.8631L39.2583 32.227C39.2583 32.5504 38.9599 32.8508 38.5962 32.897L2.90987 37.0397C2.5462 37.0859 2.2478 36.8549 2.2478 36.5238L2.25713 34.1598C2.25713 33.8287 2.55553 33.5361 2.9192 33.4899L38.6055 29.3472Z" fill="#DFDFDF"/>
<path d="M30.8939 25.5817C31.3042 25.5355 31.6399 25.7896 31.6399 26.1593L31.6305 28.3769C31.6305 28.7465 31.2948 29.0776 30.8845 29.1315L2.99379 32.3656C2.5835 32.4118 2.2478 32.1577 2.2478 31.7881L2.25713 29.5704C2.25713 29.2008 2.59282 28.862 3.00312 28.8158L30.8939 25.5817Z" fill="#DFDFDF"/>
<path d="M20.1981 22.1628C20.5152 22.1243 20.7763 22.3245 20.7763 22.6094L20.7669 25.1273C20.7669 25.4122 20.5058 25.6741 20.1888 25.7126L2.8445 27.7223C2.52746 27.7608 2.26636 27.5606 2.26636 27.268L2.27568 24.75C2.27568 24.4651 2.53678 24.2033 2.85382 24.1648L20.1981 22.1628Z" fill="#DFDFDF"/>
<path d="M11.6565 18.4971C12.0668 18.4509 12.4025 18.705 12.4025 19.0746L12.3932 21.2923C12.3932 21.6619 12.0575 22.0007 11.6472 22.0469L3.01235 23.0479C2.60205 23.0941 2.26636 22.84 2.26636 22.4704L2.27568 20.2528C2.27568 19.8832 2.61138 19.5443 3.02168 19.4981L11.6565 18.4971Z" fill="#DFDFDF"/>
<path d="M45.5338 35.8074C66.5241 32.8428 88.6055 27.0523 92.9975 14.7089C95.6085 7.38598 91.1512 0.124693 91.692 0.00148968C92.7457 -0.229516 109.829 26.4671 98.8722 37.5784C90.8808 45.6791 69.0698 44.3854 45.5338 35.8074Z" fill="#8CC63F"/>
<path d="M50.4011 16.3104L54.6719 23.102C55.0729 23.7334 55.3619 24.0491 55.5391 24.0491C55.8375 24.0491 55.9867 23.4716 55.9867 22.3165C55.9867 21.0075 55.9401 20.1143 55.8562 19.6369C55.7722 19.1595 55.5951 18.7976 55.3153 18.5589C55.0915 18.3586 54.933 18.1507 54.8491 17.9274C54.7558 17.7041 54.7092 17.4192 54.7092 17.065C54.7092 16.1949 55.0356 15.6328 55.6976 15.3787C55.9681 15.2709 56.4343 15.2247 57.1057 15.2247C57.9729 15.2247 58.5697 15.3171 58.8961 15.5019C59.4183 15.7945 59.6887 16.3412 59.6887 17.1497C59.6887 17.8273 59.4742 18.3355 59.0453 18.6744C58.8774 18.813 58.7562 18.9285 58.6909 19.0286C58.6257 19.1364 58.5697 19.2904 58.5231 19.4983C58.3646 20.1836 58.29 21.4849 58.2806 23.3946V28.4767C58.2806 29.2544 58.2806 30.3171 58.29 31.6723C58.2993 33.4972 58.234 34.8217 58.1128 35.6302C57.9543 36.6389 57.6745 37.1394 57.2736 37.1394C57.0964 37.1394 56.9472 37.0701 56.8166 36.9392C56.6861 36.8083 56.4716 36.4926 56.1825 36.0075L51.1005 27.7375C50.7461 27.16 50.4477 26.8674 50.2146 26.8674C49.8696 26.8674 49.6924 27.7452 49.6924 29.5008C49.6924 30.9485 49.739 31.9341 49.823 32.4577C49.9069 32.9813 50.0934 33.374 50.3638 33.6281C50.7461 33.9746 50.9419 34.4213 50.9419 34.968C50.9419 36.4156 50.0841 37.1317 48.3776 37.1317C47.6036 37.1317 47.0068 36.9469 46.5779 36.5773C46.1489 36.2077 45.9438 35.6841 45.9438 35.0142C45.9438 34.66 45.9811 34.3982 46.065 34.2211C46.1489 34.044 46.3261 33.8052 46.6059 33.5049C46.8763 33.2123 47.0348 32.6964 47.0908 31.9649C47.184 30.6251 47.24 28.7 47.24 26.182C47.24 23.5024 47.156 21.5465 46.9789 20.3222C46.9136 19.8756 46.839 19.5445 46.7364 19.3212C46.6432 19.1056 46.4753 18.8977 46.2515 18.6975C45.9904 18.4665 45.8132 18.2431 45.72 18.0275C45.6174 17.8119 45.5708 17.5424 45.5708 17.2344C45.5708 16.2334 46.037 15.6097 46.9882 15.3479C47.3052 15.2632 47.8647 15.2247 48.6667 15.2247C49.1236 15.2247 49.4593 15.2863 49.6644 15.4172C49.8696 15.5635 50.1214 15.8561 50.4011 16.3104Z" fill="#333333"/>
<path d="M66.6541 15.1323C68.1274 15.1323 69.405 15.8946 70.5053 17.4193C71.2513 18.4665 71.8481 19.8294 72.3143 21.5004C72.7619 23.1636 72.9951 24.8269 72.9951 26.4824C72.9951 28.9311 72.5475 31.1256 71.6616 33.0584C70.9063 34.6985 69.9178 35.8767 68.7056 36.5928C67.9596 37.0317 67.2043 37.2473 66.449 37.2473C65.4605 37.2473 64.5187 36.87 63.6142 36.1231C62.5232 35.2221 61.6653 33.8515 61.0498 32.0266C60.453 30.2632 60.1453 28.3151 60.1453 26.1821C60.1453 23.7103 60.5276 21.5312 61.3016 19.6369C61.9823 17.9506 62.9148 16.7186 64.0711 15.9331C64.8451 15.4018 65.703 15.1323 66.6541 15.1323ZM65.8428 19.5984C65.358 19.5984 64.985 19.9912 64.7052 20.7689C64.4907 21.3541 64.3788 22.0394 64.3788 22.8402C64.3788 24.0107 64.5094 25.3736 64.7705 26.9136C65.0316 28.4537 65.3673 29.8243 65.7682 31.0178C65.9454 31.526 66.1599 31.9342 66.421 32.2345C66.6821 32.5348 66.9432 32.6888 67.2136 32.6888C67.6519 32.6888 67.9969 32.3962 68.2673 31.8033C68.5377 31.2103 68.6683 30.4326 68.6683 29.4701C68.6683 28.215 68.5564 26.8597 68.3326 25.4044C68.1088 23.9491 67.8197 22.7093 67.4654 21.6852C67.2509 21.0538 66.9991 20.5533 66.7101 20.1914C66.421 19.814 66.1319 19.6215 65.8428 19.5984Z" fill="#333333"/>
<path d="M77.2663 15.5637H81.7795C82.2644 15.5329 82.712 15.4097 83.1037 15.2095C83.2715 15.1248 83.4301 15.0863 83.5606 15.0863C84.0268 15.0863 84.4744 15.71 84.9127 16.9575C85.351 18.2049 85.5655 19.4831 85.5655 20.8076C85.5655 21.7085 85.4163 22.3707 85.1085 22.7865C84.8847 23.0945 84.605 23.2562 84.2879 23.2562C83.9802 23.2562 83.7191 23.1022 83.4953 22.7942C83.2715 22.4862 83.0477 21.9857 82.8333 21.2773C82.6468 20.6304 82.4976 20.2146 82.3857 20.0144C82.2738 19.8142 82.1432 19.7218 81.994 19.7218C81.7795 19.7218 81.6303 19.8835 81.5371 20.2069C81.4438 20.5303 81.3972 21.0617 81.3972 21.7932V30.5175C81.3972 31.4107 81.4532 32.0575 81.5557 32.4656C81.6583 32.8738 81.8541 33.1818 82.1432 33.3974C82.4509 33.6361 82.6654 33.8594 82.7773 34.075C82.8892 34.2906 82.9451 34.5832 82.9451 34.9528C82.9451 35.6997 82.6654 36.2541 82.1059 36.6238C81.5464 36.9857 80.6885 37.1705 79.5416 37.1705C78.1242 37.1705 77.0705 36.9549 76.3898 36.5314C75.8116 36.1771 75.5225 35.6073 75.5225 34.8142C75.5225 34.3907 75.6251 34.0596 75.8303 33.8132C75.8862 33.7593 76.082 33.6361 76.4364 33.4359C76.6509 33.3204 76.8 33.1048 76.884 32.7814C76.9679 32.458 77.0332 31.8419 77.0891 30.9256C77.1357 30.1171 77.173 28.8081 77.2197 26.9908C77.2663 25.1736 77.2756 23.6104 77.2756 22.2783C77.2756 21.3466 77.2383 20.6766 77.1544 20.2839C77.0705 19.8912 76.9399 19.691 76.7627 19.691C76.539 19.691 76.3245 19.9836 76.11 20.5611C75.7277 21.6238 75.4106 22.3245 75.1682 22.6633C74.8791 23.0714 74.59 23.2716 74.3196 23.2716C74.0119 23.2716 73.7601 23.0637 73.555 22.6402C73.3498 22.2167 73.2566 21.6854 73.2566 21.0309C73.2566 20.384 73.3405 19.6756 73.499 18.9056C73.6576 18.1356 73.872 17.4195 74.1425 16.7649C74.5807 15.7023 75.0097 15.1787 75.4293 15.1787C75.5412 15.1787 75.6717 15.2095 75.8209 15.2711C76.1287 15.3866 76.3804 15.4636 76.5763 15.5021C76.7907 15.5483 77.0145 15.5637 77.2663 15.5637Z" fill="#333333"/>
<path d="M87.6822 15.5634H92.0836C92.9788 15.5634 93.6222 15.5326 94.0325 15.4633C94.4428 15.394 94.8437 15.2554 95.2261 15.0475C95.3473 14.9859 95.4405 14.9551 95.5058 14.9551C95.8042 14.9551 96.0653 15.2477 96.2984 15.8252C96.6714 16.7723 96.8672 17.912 96.8672 19.2518C96.8672 19.9294 96.7926 20.4607 96.6341 20.8457C96.4756 21.2384 96.2611 21.4309 95.9907 21.4309C95.8042 21.4309 95.655 21.3616 95.5524 21.223C95.4499 21.0844 95.3007 20.7687 95.1235 20.2836C94.8717 19.5906 94.5547 19.1209 94.163 18.8899C93.7714 18.6589 93.1466 18.5434 92.2607 18.5434C91.5987 18.5434 91.207 18.759 91.0578 19.1825C90.9832 19.4135 90.9366 19.7215 90.9273 20.0988C90.9086 20.4838 90.9086 21.4617 90.9086 23.0403C90.9086 23.664 90.9646 24.049 91.0765 24.203C91.1884 24.357 91.4868 24.4263 91.981 24.4263C92.2234 24.4263 92.3913 24.3339 92.5032 24.1568C92.6151 23.972 92.6804 23.6486 92.7083 23.1866C92.7456 22.586 92.7923 22.1702 92.8296 21.9469C92.8669 21.7236 92.9508 21.5311 93.0627 21.3616C93.1839 21.1768 93.3238 21.0844 93.4823 21.0844C93.7154 21.0844 93.9206 21.2846 94.0791 21.6928C94.2003 21.9931 94.3029 22.5244 94.3868 23.2867C94.4707 24.049 94.508 24.8498 94.508 25.6815C94.508 27.3216 94.3682 28.6691 94.0884 29.7164C93.9299 30.2862 93.6968 30.5711 93.389 30.5711C93.1932 30.5711 93.0627 30.4787 92.9881 30.3016C92.9135 30.1168 92.8575 29.7395 92.8202 29.1696C92.7363 27.9992 92.354 27.4063 91.6919 27.4063C91.4308 27.4063 91.263 27.5526 91.1604 27.8529C91.0578 28.1532 91.0205 28.6999 91.0205 29.4931C91.0205 29.9782 91.0392 30.6096 91.0765 31.3873C91.1138 32.1573 91.1511 32.6732 91.1884 32.9196C91.235 33.2277 91.3749 33.4433 91.6173 33.5665C91.8504 33.682 92.2514 33.7436 92.8016 33.7436C93.6595 33.7436 94.3029 33.5434 94.7412 33.143C95.1794 32.7425 95.5338 32.0187 95.8042 30.9715C95.9627 30.3709 96.1119 29.9628 96.2331 29.7549C96.3544 29.547 96.5315 29.4469 96.7367 29.4469C96.9791 29.4469 97.175 29.6394 97.3335 30.0167C97.492 30.394 97.5666 30.8714 97.5666 31.4412C97.5666 32.0649 97.4827 32.8426 97.3055 33.7744C97.1283 34.7061 96.9139 35.5377 96.6528 36.2692C96.5222 36.6234 96.4103 36.8622 96.3264 36.9777C96.2425 37.0932 96.1306 37.1548 96 37.1548C95.8881 37.1548 95.7389 37.124 95.5245 37.0624C95.1608 36.9392 94.6666 36.8621 94.0604 36.8313H86.7963C86.5073 36.8313 86.2741 36.7158 86.1156 36.4848C85.9571 36.2538 85.8732 35.9227 85.8732 35.4992C85.8732 35.1989 85.9105 34.9833 85.9757 34.8447C86.041 34.7061 86.1996 34.5367 86.4513 34.3288C86.6192 34.1902 86.7497 34.0285 86.8336 33.8283C86.9176 33.6281 86.9828 33.3432 87.0295 32.9581C87.216 31.3873 87.3092 29.2775 87.3092 26.6209C87.3092 22.6091 87.1693 20.0834 86.8989 19.0362C86.843 18.8283 86.7777 18.682 86.7124 18.5973C86.6471 18.5126 86.4979 18.4125 86.2835 18.3047C85.9571 18.1276 85.7986 17.7348 85.7986 17.1188C85.7986 16.7877 85.8545 16.4874 85.9664 16.2333C86.0783 15.9715 86.2182 15.8021 86.3954 15.7174C86.6098 15.6096 87.0481 15.5634 87.6822 15.5634Z" fill="#333333"/>
</svg>
