<svg width="15" height="17" viewBox="0 0 15 17" fill="none" xmlns="http://www.w3.org/2000/svg">
<path d="M14.375 3.06H11.875V1.36C11.875 0.609875 11.3145 0 10.625 0H4.375C3.68555 0 3.125 0.609875 3.125 1.36V3.06H0.625C0.279297 3.06 0 3.36387 0 3.74V4.42C0 4.5135 0.0703125 4.59 0.15625 4.59H1.33594L1.81836 15.7037C1.84961 16.4284 2.40039 17 3.06641 17H11.9336C12.6016 17 13.1504 16.4305 13.1816 15.7037L13.6641 4.59H14.8438C14.9297 4.59 15 4.5135 15 4.42V3.74C15 3.36387 14.7207 3.06 14.375 3.06ZM10.4688 3.06H4.53125V1.53H10.4688V3.06Z" fill="#8CC63F"/>
</svg>
