<svg width="14" height="11" viewBox="0 0 14 11" fill="none" xmlns="http://www.w3.org/2000/svg">
<path d="M12.9857 0.00886558C13.519 -0.0661648 13.95 0.343375 13.95 0.921735L13.9376 7.34934C13.9376 7.93082 13.5035 8.46229 12.9702 8.53732L0.964314 10.2411C0.430995 10.3162 0 9.90662 0 9.32826L0.0124026 2.90066C0.0124026 2.31918 0.446498 1.78771 0.979817 1.71268L12.9857 0.00886558ZM13.0539 7.50565L13.057 6.54589C13.057 6.41146 12.9578 6.3208 12.8369 6.33643L0.970515 8.01836C0.849588 8.03712 0.750366 8.15591 0.750366 8.29034L0.747265 9.25011C0.747265 9.38141 0.846488 9.4752 0.967414 9.45957L12.8338 7.77764C12.9547 7.75888 13.0539 7.64008 13.0539 7.50565ZM0.750366 6.42709L0.747265 7.32745C0.747265 7.47751 0.85889 7.58068 0.995321 7.56192L10.2695 6.24889C10.4059 6.23013 10.5175 6.09258 10.5175 5.94252L10.5206 5.04215C10.5206 4.89209 10.409 4.78893 10.2726 4.80768L0.998421 6.12072C0.861991 6.1426 0.750366 6.27703 0.750366 6.42709ZM0.753467 4.4763L0.750366 5.49859C0.750366 5.61426 0.837186 5.69554 0.942609 5.68304L6.70989 4.86708C6.81531 4.85145 6.90213 4.74516 6.90213 4.62949L6.90524 3.6072C6.90524 3.49153 6.81842 3.41024 6.71299 3.42587L0.94571 4.24183C0.840287 4.25121 0.753467 4.3575 0.753467 4.4763ZM0.756568 2.64431L0.753467 3.54467C0.753467 3.69473 0.865092 3.7979 1.00152 3.77914L3.87276 3.37273C4.00919 3.35397 4.12082 3.21641 4.12082 3.06635L4.12392 2.16599C4.12392 2.01593 4.01229 1.91276 3.87586 1.93152L1.00462 2.33793C0.871294 2.35669 0.759669 2.49425 0.756568 2.64431Z" fill="#DB9A33"/>
<path d="M12.8369 6.33662C12.9578 6.31786 13.0571 6.41165 13.0571 6.54608L13.054 7.50584C13.054 7.63715 12.9547 7.75907 12.8338 7.77783L0.967494 9.45976C0.846567 9.47852 0.747345 9.38473 0.747345 9.2503L0.750446 8.29054C0.750446 8.15611 0.849668 8.03731 0.970594 8.01855L12.8369 6.33662Z" fill="#DFDFDF"/>
<path d="M10.2727 4.80762C10.4091 4.78886 10.5207 4.89203 10.5207 5.04209L10.5176 5.94246C10.5176 6.09252 10.406 6.22695 10.2696 6.24883L0.9954 7.56186C0.85897 7.58062 0.747345 7.47746 0.747345 7.32739L0.750446 6.42703C0.750446 6.27697 0.862071 6.13941 0.998501 6.12065L10.2727 4.80762Z" fill="#DFDFDF"/>
<path d="M6.71633 3.41953C6.82176 3.4039 6.90858 3.48518 6.90858 3.60085L6.90548 4.62314C6.90548 4.73881 6.81866 4.84511 6.71323 4.86074L0.945966 5.6767C0.840543 5.69233 0.753723 5.61104 0.753723 5.49225L0.756824 4.46996C0.756824 4.35428 0.843643 4.24799 0.949066 4.23236L6.71633 3.41953Z" fill="#DFDFDF"/>
<path d="M3.87612 1.93115C4.01255 1.9124 4.12417 2.01556 4.12417 2.16563L4.12107 3.06599C4.12107 3.21605 4.00945 3.35361 3.87302 3.37237L1.00178 3.77878C0.865348 3.79754 0.753723 3.69437 0.753723 3.54431L0.756824 2.64394C0.756824 2.49388 0.868449 2.35633 1.00488 2.33757L3.87612 1.93115Z" fill="#DFDFDF"/>
</svg>
